<svg width="16" height="14" viewBox="0 0 16 14" fill="none" xmlns="http://www.w3.org/2000/svg">
<path d="M13.5452 1.907C12.5077 1.43086 11.4129 1.09104 10.2882 0.895996C10.278 0.89428 10.2675 0.895762 10.2582 0.900239C10.2489 0.904716 10.2412 0.911967 10.2362 0.920996C10.0952 1.171 9.93917 1.498 9.83017 1.754C8.61778 1.57 7.38456 1.57 6.17217 1.754C6.05058 1.46882 5.91303 1.19071 5.76017 0.920996C5.75504 0.912066 5.74733 0.904898 5.73804 0.900436C5.72876 0.895974 5.71835 0.894426 5.70817 0.895996C4.58317 1.09 3.48817 1.43 2.45117 1.907C2.4423 1.91038 2.43487 1.91675 2.43017 1.925C0.356169 5.024 -0.212831 8.047 0.0661689 11.032C0.0671689 11.046 0.0761689 11.06 0.0871689 11.069C1.29489 11.9636 2.64576 12.6467 4.08217 13.089C4.09231 13.0922 4.10321 13.0921 4.11328 13.0887C4.12335 13.0852 4.13207 13.0787 4.13817 13.07C4.44617 12.65 4.72017 12.207 4.95617 11.741C4.96109 11.7314 4.96277 11.7205 4.96097 11.7098C4.95917 11.6992 4.95398 11.6894 4.94617 11.682C4.941 11.6771 4.93487 11.6734 4.92817 11.671C4.49733 11.5054 4.08006 11.3065 3.68017 11.076C3.669 11.0697 3.66069 11.0593 3.65697 11.047C3.65325 11.0347 3.65439 11.0215 3.66017 11.01C3.66357 11.0026 3.66872 10.996 3.67517 10.991C3.75917 10.928 3.84317 10.862 3.92317 10.796C3.93024 10.7903 3.93872 10.7867 3.9477 10.7854C3.95668 10.7842 3.96583 10.7854 3.97417 10.789C6.59317 11.985 9.42817 11.985 12.0152 10.789C12.0238 10.7853 12.0333 10.7839 12.0426 10.7852C12.052 10.7864 12.0608 10.7901 12.0682 10.796C12.1482 10.862 12.2322 10.928 12.3162 10.991C12.323 10.996 12.3284 11.0026 12.3321 11.0102C12.3357 11.0178 12.3374 11.0262 12.337 11.0346C12.3366 11.043 12.3341 11.0512 12.3298 11.0584C12.3255 11.0656 12.3194 11.0717 12.3122 11.076C11.9132 11.3086 11.4954 11.5073 11.0632 11.67C11.0563 11.6725 11.05 11.6765 11.0448 11.6817C11.0396 11.6868 11.0357 11.6931 11.0332 11.7C11.0309 11.7067 11.0299 11.7138 11.0304 11.7208C11.031 11.7279 11.0329 11.7347 11.0362 11.741C11.2762 12.206 11.5512 12.65 11.8532 13.07C11.8593 13.0787 11.868 13.0852 11.8781 13.0887C11.8881 13.0921 11.899 13.0922 11.9092 13.089C13.348 12.648 14.701 11.9649 15.9102 11.069C15.9162 11.0648 15.9213 11.0593 15.9249 11.0529C15.9285 11.0465 15.9307 11.0393 15.9312 11.032C16.2652 7.581 15.3722 4.583 13.5652 1.926C13.5633 1.92161 13.5606 1.91765 13.5572 1.91438C13.5537 1.9111 13.5496 1.90859 13.5452 1.907ZM5.34717 9.214C4.55817 9.214 3.90917 8.49 3.90917 7.602C3.90917 6.713 4.54617 5.989 5.34717 5.989C6.15417 5.989 6.79717 6.719 6.78517 7.602C6.78517 8.49 6.14817 9.214 5.34717 9.214ZM10.6632 9.214C9.87517 9.214 9.22517 8.49 9.22517 7.602C9.22517 6.713 9.86217 5.989 10.6632 5.989C11.4702 5.989 12.1142 6.719 12.1012 7.602C12.1012 8.49 11.4702 9.214 10.6632 9.214Z" fill="#555555"/>
</svg>
