<svg width="16" height="16" viewBox="0 0 16 16" fill="none" xmlns="http://www.w3.org/2000/svg">
<path d="M14.9453 1.54883L12.1914 0.933594C11.5469 0.787109 10.9023 1.10938 10.668 1.69531L9.37891 4.68359C9.14453 5.21094 9.29102 5.85547 9.75977 6.23633L10.9316 7.20312C10.1113 8.72656 8.82227 9.98633 7.29883 10.8359L6.33203 9.66406C5.95117 9.19531 5.30664 9.04883 4.7793 9.2832L1.79102 10.543C1.20508 10.8066 0.882812 11.4512 1.0293 12.0957L1.64453 14.8496C1.79102 15.4648 2.34766 15.875 2.96289 15.875C10.1406 15.875 16 10.0742 16 2.86719C16 2.25195 15.5605 1.69531 14.9453 1.54883ZM3.02148 14.4688L2.40625 11.832L5.27734 10.6016L6.91797 12.5938C9.81836 11.2168 11.3125 9.72266 12.6895 6.82227L10.6973 5.18164L11.9277 2.31055L14.5938 2.92578C14.5645 9.2832 9.37891 14.4395 3.02148 14.4688Z" fill="white"/>
</svg>
