<svg width="27" height="6" viewBox="0 0 27 6" fill="none" xmlns="http://www.w3.org/2000/svg">
<path d="M5.18945 0.867188H4.4668L3.00195 4.92969L1.57617 0.867188H0.736328L2.5918 5.90625H3.37305L4.79883 1.98047L6.24414 5.90625H7.02539L8.88086 0.867188H8.08008L6.63477 4.94922L5.18945 0.867188ZM13.8809 0.867188H13.1582L11.6934 4.92969L10.2676 0.867188H9.42773L11.2832 5.90625H12.0645L13.4902 1.98047L14.9355 5.90625H15.7168L17.5723 0.867188H16.7715L15.3262 4.94922L13.8809 0.867188ZM22.5723 0.867188H21.8496L20.3848 4.92969L18.959 0.867188H18.1191L19.9746 5.90625H20.7559L22.1816 1.98047L23.627 5.90625H24.4082L26.2637 0.867188H25.4629L24.0176 4.94922L22.5723 0.867188Z" fill="#555555"/>
</svg>
