<svg width="32" height="32" viewBox="0 0 32 32" fill="none" xmlns="http://www.w3.org/2000/svg">
<path fill-rule="evenodd" clip-rule="evenodd" d="M15.975 8.71373C13.5688 8.71373 11.6182 6.76309 11.6182 4.35686C11.6182 1.95063 13.5688 0 15.975 0C18.3813 0 20.3319 1.95063 20.3319 4.35686C20.3319 6.76309 18.3813 8.71373 15.975 8.71373ZM15.9752 5.80912C16.7773 5.80912 17.4275 5.15891 17.4275 4.35683C17.4275 3.55475 16.7773 2.90454 15.9752 2.90454C15.1732 2.90454 14.5229 3.55475 14.5229 4.35683C14.5229 5.15891 15.1732 5.80912 15.9752 5.80912ZM14.5228 8.71332H17.4273C19.8336 8.71332 21.7842 10.664 21.7842 13.0702V14.5225C21.7842 16.9287 19.8336 18.8793 17.4273 18.8793H14.5228C12.1165 18.8793 10.1659 16.9287 10.1659 14.5225V13.0702C10.1659 10.664 12.1165 8.71332 14.5228 8.71332ZM14.5232 11.6188C13.7211 11.6188 13.0709 12.269 13.0709 13.071V14.5233C13.0709 15.3254 13.7211 15.9756 14.5232 15.9756H17.4278C18.2299 15.9756 18.8801 15.3254 18.8801 14.5233V13.071C18.8801 12.269 18.2299 11.6188 17.4278 11.6188H14.5232ZM26.1409 21.7848C23.7347 21.7848 21.7841 19.8341 21.7841 17.4279C21.7841 15.0217 23.7347 13.071 26.1409 13.071C28.5471 13.071 30.4978 15.0217 30.4978 17.4279C30.4978 19.8341 28.5471 21.7848 26.1409 21.7848ZM26.1414 18.8799C26.9435 18.8799 27.5937 18.2296 27.5937 17.4276C27.5937 16.6255 26.9435 15.9753 26.1414 15.9753C25.3393 15.9753 24.6891 16.6255 24.6891 17.4276C24.6891 18.2296 25.3393 18.8799 26.1414 18.8799ZM24.6887 21.7841H27.5932C29.9995 21.7841 31.9501 23.7347 31.9501 26.1409V27.5932C31.9501 29.9994 29.9995 31.9501 27.5932 31.9501H24.6887C22.2824 31.9501 20.3318 29.9994 20.3318 27.5932V26.1409C20.3318 23.7347 22.2824 21.7841 24.6887 21.7841ZM24.6886 24.6886C23.8865 24.6886 23.2363 25.3388 23.2363 26.1409V27.5932C23.2363 28.3953 23.8865 29.0455 24.6886 29.0455H27.5932C28.3953 29.0455 29.0455 28.3953 29.0455 27.5932V26.1409C29.0455 25.3388 28.3953 24.6886 27.5932 24.6886H24.6886ZM5.80901 21.7848C3.40278 21.7848 1.45215 19.8341 1.45215 17.4279C1.45215 15.0217 3.40278 13.071 5.80901 13.071C8.21524 13.071 10.1659 15.0217 10.1659 17.4279C10.1659 19.8341 8.21524 21.7848 5.80901 21.7848ZM5.80886 18.8799C6.61093 18.8799 7.26114 18.2296 7.26114 17.4276C7.26114 16.6255 6.61093 15.9753 5.80886 15.9753C5.00678 15.9753 4.35657 16.6255 4.35657 17.4276C4.35657 18.2296 5.00678 18.8799 5.80886 18.8799ZM4.35686 21.7841H7.26144C9.66767 21.7841 11.6183 23.7347 11.6183 26.1409V27.5932C11.6183 29.9994 9.66767 31.9501 7.26144 31.9501H4.35686C1.95063 31.9501 0 29.9994 0 27.5932V26.1409C0 23.7347 1.95063 21.7841 4.35686 21.7841ZM4.35671 24.6886C3.55463 24.6886 2.90442 25.3388 2.90442 26.1409V27.5932C2.90442 28.3953 3.55463 29.0455 4.35671 29.0455H7.26128C8.06336 29.0455 8.71357 28.3953 8.71357 27.5932V26.1409C8.71357 25.3388 8.06336 24.6886 7.26128 24.6886H4.35671Z" fill="#1B1F2A"/>
</svg>
