<svg width="12" height="17" viewBox="0 0 12 17" fill="none" xmlns="http://www.w3.org/2000/svg">
<path d="M6 0.875C2.86523 0.875 0.375 3.42383 0.375 6.5C0.375 8.60938 1.04883 9.25391 4.79883 15.2305C5.35547 16.1094 6.61523 16.1094 7.17188 15.2305C10.9219 9.25391 11.625 8.60938 11.625 6.5C11.625 3.39453 9.07617 0.875 6 0.875ZM6 14.4688C2.25 8.49219 1.78125 8.11133 1.78125 6.5C1.78125 4.18555 3.65625 2.28125 6 2.28125C8.31445 2.28125 10.2188 4.18555 10.2188 6.5C10.2188 8.11133 9.75 8.43359 6 14.4688ZM3.65625 6.5C3.65625 7.81836 4.68164 8.84375 6 8.84375C7.28906 8.84375 8.34375 7.81836 8.34375 6.5C8.34375 5.21094 7.28906 4.15625 6 4.15625C4.68164 4.15625 3.65625 5.21094 3.65625 6.5Z" fill="white"/>
</svg>
