<svg width="27" height="29" viewBox="0 0 27 29" fill="none" xmlns="http://www.w3.org/2000/svg">
<path d="M16.3494 2.56098C14.7274 1.62449 12.7289 1.62449 11.1069 2.56098L4.40446 6.43062C2.7824 7.36712 1.78317 9.09783 1.78317 10.9708V18.7101C1.78317 20.5831 2.7824 22.3138 4.40446 23.2503L11.1069 27.1199C12.7289 28.0564 14.7274 28.0564 16.3494 27.1199L23.0519 23.2503C24.6739 22.3138 25.6731 20.5831 25.6731 18.7101V10.9708C25.6731 9.09783 24.6739 7.36712 23.0519 6.43062L16.3494 2.56098Z" fill="#0E7DFF" stroke="#FCFCFD" stroke-width="2.09703"/>
<g clip-path="url(#clip0_1_10693)">
<path d="M17.2668 10.417L11.7818 16.4476L10.1894 15.2385H9.30469L11.7818 19.2638L18.1515 10.417H17.2668Z" fill="white"/>
</g>
<defs>
<clipPath id="clip0_1_10693">
<rect width="9.43662" height="9.43662" fill="white" transform="translate(9.00977 10.1221)"/>
</clipPath>
</defs>
</svg>
